<svg width="107" height="224" viewBox="0 0 107 224" fill="none" xmlns="http://www.w3.org/2000/svg">
<g clip-path="url(#clip0_496_280)">
<path fill-rule="evenodd" clip-rule="evenodd" d="M72.8001 158.12C74.2401 158.08 75.6701 158.04 77.1101 158C84.1501 144.35 81.8201 123.87 83.6101 99.4599C83.9101 88.5599 82.6201 75.7699 85.4701 64.9399C80.1301 66.2599 73.7401 64.4599 70.2901 68.7999C64.0001 76.7199 61.5401 76.1199 54.3201 68.7999C51.3901 65.8299 46.2801 63.7299 39.5701 69.4899C22.9201 89.1099 20.8501 112.6 21.7301 136.86C21.8901 141.34 20.7701 144.51 16.7601 147.53C4.61012 156.69 -1.83989 168.95 0.460114 184.55C1.57011 192.1 5.35011 199.07 9.86011 204.83C18.6901 216.13 30.6701 222.98 45.4101 223.69C61.1001 224.44 74.1401 218.84 84.3901 206.83C85.8901 205.07 87.4001 203.4 88.1601 201.18C85.5801 201.47 83.0001 201.86 80.4201 202.03C77.2601 202.23 75.7101 199.2 74.8901 195.78C74.2701 193.2 72.6301 193.94 70.4101 194C66.2001 194.11 64.7101 192.08 65.8701 188.34C67.0901 184.4 65.3601 181.87 62.4501 178.86C54.1301 180 45.7901 180.98 38.3001 175.81C33.2701 172.33 28.6901 168.49 28.1801 161.65C27.9501 158.58 28.6401 157.02 32.1001 157.3C36.8201 157.68 44.4501 157.93 49.1801 158.14C49.0701 152.72 73.5401 151.44 72.8101 158.12H72.8001Z" fill="#ED762F"/>
<path fill-rule="evenodd" clip-rule="evenodd" d="M62.9901 187.94C63.4501 188.22 63.7801 188.87 63.8101 189.41C63.9801 193.21 67.2801 197.37 71.2601 197.29C72.2301 197.29 72.5601 197.18 72.9101 198.35C73.9001 201.72 81.4701 205.14 88.1601 201.17C91.8901 192.63 90.6301 184.29 86.8201 176.22C85.6401 173.71 83.1101 172.42 80.2001 173.39C74.3201 175.35 67.9601 176.79 62.4401 178.85C58.3801 184.62 60.9801 186.74 62.9901 187.93V187.94Z" fill="white"/>
<path fill-rule="evenodd" clip-rule="evenodd" d="M83.6001 99.45C72.8101 118.01 72.0001 137.67 77.1001 157.99C88.1601 158.57 90.1201 157.97 87.3101 149.35C82.7501 135.4 83.9201 102.99 83.6001 99.45V99.45Z" fill="#141414"/>
<path fill-rule="evenodd" clip-rule="evenodd" d="M92.69 49.04C97.56 50.99 100.02 57.26 102.39 62.16C97.46 62.64 77.7 70.35 65.73 79.93C60.39 84.2 54.69 83.01 50.51 77.63C44.55 68.74 32.53 56.33 27.44 53.09C25.43 51.82 22.74 50.13 22.04 47.97C25.78 44.95 30.12 41.31 34.63 40.06C44.54 37.3 84.13 45.59 92.69 49.03V49.04Z" fill="white"/>
<path fill-rule="evenodd" clip-rule="evenodd" d="M22.04 47.97C21.41 46.85 21.95 45.55 22.88 43.99C28.34 34.79 32.54 27.3 37.2 22.06C46.06 12.12 55.19 9.55001 70.99 12.03C94.65 15.75 98.71 33.08 100.63 33.75C104.89 43.8 103.26 51.35 104.53 60.15C104.74 61.63 103.65 62.07 102.39 62.16C100.02 57.26 96.31 53.35 91.44 51.4C82.87 47.96 73 48.54 67.24 59.97C65.12 64.18 63.89 69.88 63.22 74.5C60.35 73.75 57.25 72.16 54.5 73.94C55.64 66.9 56.02 62.47 55.49 56.6C54.56 46.15 44.1 40.15 34.51 42.35C29.95 43.4 25.77 44.96 22.04 47.97V47.97Z" fill="#ED762F"/>
<path fill-rule="evenodd" clip-rule="evenodd" d="M41.53 19.15C40.25 16.25 38.56 13.26 39.38 10.44C40.03 8.20002 41.42 3.33002 44.03 3.38002C46.67 3.43002 51.06 6.04002 52.01 8.95002C52.4 10.16 52.84 11.74 53.06 13C49.47 13.16 42.94 16.83 41.54 19.15H41.53Z" fill="white"/>
<path fill-rule="evenodd" clip-rule="evenodd" d="M62.88 73.77C63.81 75.47 63.78 76.97 62.02 78.2C59.84 79.72 57.72 79.11 55.9 78.2C54.19 77.34 53.04 75.08 54.56 73.01C57.31 71.23 61.36 72.44 62.88 73.78V73.77Z" fill="#141414"/>
<path fill-rule="evenodd" clip-rule="evenodd" d="M41.5299 19.15C41.0799 20.59 39.2099 21.59 37.8599 21.34C35.3399 16.08 36.2299 5.79 40.7099 1.74C42.4899 0.130001 45.0499 -0.739999 46.9499 0.830001C50.8599 4.05 54.7199 5.8 55.8399 11.51C55.0299 13.16 53.1699 13.41 52.1099 13.19C51.8899 11.92 48.5299 4.78 44.6399 4.54C42.0399 4.38 41.5099 7.81 40.8599 10.05C40.0399 12.87 40.2399 16.27 41.5199 19.16L41.5299 19.15Z" fill="#141414"/>
<path fill-rule="evenodd" clip-rule="evenodd" d="M97.64 30.32C99.88 28.08 102.54 25.9 102.79 22.97C102.99 20.65 103.45 15.61 101 14.71C98.52 13.8 93.48 14.66 91.55 17.02C90.75 18.01 89.65 19.45 88.99 20.55C92.27 22 97.17 27.64 97.63 30.31L97.64 30.32Z" fill="white"/>
<path fill-rule="evenodd" clip-rule="evenodd" d="M97.64 30.32C97.54 31.83 98.93 33.43 100.27 33.69C104.52 29.69 108.08 20.02 106.24 14.26C105.51 11.98 105.29 10.11 101.68 10.59C96.66 11.25 89.61 13.16 86.51 18.07C86.67 19.9 88.31 20.81 89.38 20.98C90.65 18.84 96.71 15.17 100.6 15.04C102.69 14.97 102.92 15.97 102.21 20.67C101.77 23.58 99.88 28.08 97.64 30.32V30.32Z" fill="#141414"/>
<path fill-rule="evenodd" clip-rule="evenodd" d="M52.9201 145.4C53.5901 146.37 54.4601 146.7 55.7901 146.91C55.5501 141.47 59.7801 135.3 59.2201 128.79C58.7401 123.22 57.3101 118.76 52.5001 116.67C49.0901 115.2 45.1301 115.28 45.1201 116.98C45.1201 117.86 45.9001 117.56 47.0301 117.8C52.5101 118.13 56.2801 122.56 56.6101 128.79C56.8501 134.62 53.0101 141.98 52.9101 145.4H52.9201Z" fill="#C15C1F"/>
<path fill-rule="evenodd" clip-rule="evenodd" d="M72.7999 158.12C73.5299 151.44 70.6699 147.91 64.1399 147.24C61.7199 146.99 56.4599 146.98 52.9299 145.41C50.6599 149.57 49.0599 152.72 49.1799 158.14C58.0199 158.69 63.9699 158.76 72.8099 158.12H72.7999Z" fill="#141414"/>
<path fill-rule="evenodd" clip-rule="evenodd" d="M79.5701 63.09C81.4401 63.29 82.8901 62.66 83.2101 60.71C83.5301 58.74 82.8401 57.14 80.6501 56.67C78.5501 56.21 77.0401 56.95 76.7201 59.16C76.4101 61.27 77.6301 62.49 79.5701 63.09V63.09Z" fill="#141414"/>
<path fill-rule="evenodd" clip-rule="evenodd" d="M39.9399 51.86C39.4399 54.33 40.2599 55.89 42.5799 56.44C44.3799 56.86 45.7199 55.85 46.2999 54.4C47.0999 52.43 46.1999 50.53 43.5499 50.09C42.3799 49.89 40.4899 50.09 39.9299 51.86H39.9399Z" fill="#141414"/>
</g>
<defs>
<clipPath id="clip0_496_280">
<rect width="106.74" height="223.75" fill="white"/>
</clipPath>
</defs>
</svg>
